<svg width="45" height="40" viewBox="0 0 45 40" fill="none" xmlns="http://www.w3.org/2000/svg">
<path d="M28.9883 8.02965C28.9002 8.47019 28.8121 8.91074 28.724 9.35128C28.4597 10.761 29.3407 12.1708 30.6624 12.5232C32.9532 13.2281 33.8343 15.1665 32.6889 16.8405C32.3365 17.2811 31.8078 17.7216 31.2791 17.8978C29.2526 18.5146 28.4597 19.66 28.9002 21.6865C29.2526 23.2725 28.724 24.4179 27.4905 25.1228C26.4332 25.6514 25.1115 25.3871 24.0542 24.3298C22.8207 23.0963 21.2347 23.0963 20.0012 24.3298C18.1509 26.092 18.1509 27.4136 19.9131 29.2639C20.7942 30.145 20.7942 31.8191 19.9131 32.7883C18.9439 33.9337 17.3579 34.1099 16.3006 33.2288C15.1552 32.3477 14.8028 30.8499 15.5958 29.6163C16.0363 28.9115 16.6531 28.2066 16.9174 27.5017C17.3579 26.5325 17.0055 25.6514 16.2125 24.9466C14.6266 23.4487 14.7147 21.8628 16.3006 20.3649C17.2698 19.4838 17.2698 18.4265 16.2125 17.7216C13.6574 15.6951 13.6574 15.6951 10.926 17.6335C9.86867 18.4265 8.1946 18.2503 7.31351 17.193C6.34432 16.1357 6.43242 14.5497 7.31351 13.4924C8.1946 12.5232 9.86867 12.4351 10.926 13.2281C11.4546 13.5805 11.8952 14.1092 12.5119 14.3735C13.7455 14.814 14.7147 14.5497 15.6839 13.5805C17.0055 12.2589 18.5915 12.2589 19.825 13.5805C20.8823 14.7259 20.7942 16.6643 19.4725 17.6335C18.3271 18.5146 18.3271 19.4838 19.4725 20.453C20.1774 21.0698 20.7942 21.8628 21.9396 21.7746C22.7326 21.7746 23.3493 21.4222 24.0542 20.9817C24.5829 20.5411 25.2877 20.1887 25.9926 19.9244C27.3142 19.4838 28.1953 18.0741 28.0191 16.7524C27.931 15.8713 27.931 14.9021 28.0191 14.0211C28.1953 12.6994 27.4905 11.3778 26.1688 10.8491C25.3758 10.4967 24.5829 10.0562 23.9661 9.5275C22.8207 8.64641 21.3228 8.64641 20.1774 9.61561C19.5607 10.2324 18.8558 10.761 17.8866 10.761C16.6531 10.761 15.772 10.2324 15.3314 9.08696C14.8909 7.94154 15.1552 6.70801 16.0363 6.00314C16.9174 5.29827 18.1509 5.12205 19.1201 5.65071C19.4725 5.82692 19.7369 6.09125 20.0893 6.35558C21.4109 7.50099 22.9088 7.50099 24.1423 6.26747C25.7283 4.76962 27.931 5.03394 28.8121 6.79612C28.9002 7.23667 28.9002 7.67721 28.9883 8.02965Z" fill="#2060E7"/>
<path d="M7.93021 7.94148C8.01832 7.1485 8.72319 6.53174 9.51617 6.61984C10.221 6.70795 10.8378 7.41282 10.7497 8.20581C10.6616 8.99879 10.0448 9.52744 9.25185 9.43933C8.54698 9.43933 7.8421 8.64635 7.93021 7.94148Z" fill="#2060E7"/>
<path d="M9.42754 24.0654C8.63456 24.0654 7.92969 23.5367 7.92969 22.7438C7.92969 22.0389 8.54645 21.2459 9.25132 21.2459C10.0443 21.2459 10.7492 21.8627 10.7492 22.6557C10.7492 23.4486 10.2205 24.0654 9.42754 24.0654Z" fill="#2060E7"/>
<path d="M35.772 23.9773C34.9791 23.9773 34.3623 23.3605 34.4504 22.5675C34.4504 21.8627 35.1553 21.2459 35.8602 21.2459C36.6531 21.2459 37.2699 21.8627 37.2699 22.7438C37.1818 23.5367 36.6531 24.0654 35.772 23.9773Z" fill="#2060E7"/>
<path d="M9.33943 32.4356C8.54645 32.4356 7.92969 31.8188 7.92969 31.0258C7.92969 30.2329 8.54645 29.6161 9.33943 29.6161C10.1324 29.6161 10.7492 30.2329 10.7492 30.9377C10.7492 31.8188 10.1324 32.4356 9.33943 32.4356Z" fill="#2060E7"/>
<path d="M27.5777 31.1141C27.5777 31.9071 26.9609 32.5239 26.1679 32.5239C25.463 32.5239 24.7582 31.7309 24.7582 31.1141C24.8463 30.3212 25.5512 29.7044 26.3441 29.7925C27.1371 29.7044 27.6658 30.3212 27.5777 31.1141Z" fill="#2060E7"/>
<path d="M36.3007 16.4879C35.7721 16.4879 35.3315 16.0473 35.3315 15.3424C35.3315 14.5495 35.7721 14.2851 36.477 14.197C37.2699 14.197 37.6224 14.5495 37.6224 15.2543C37.6224 15.9592 37.358 16.4879 36.3007 16.4879Z" fill="#2060E7"/>
<path d="M44.2306 22.6556C43.702 23.008 43.3495 23.4486 43.0852 23.4486C42.7328 23.4486 42.4684 22.9199 42.2041 22.6556C42.4684 22.3913 42.7328 21.9507 43.0852 21.8626C43.3495 21.7745 43.702 22.215 44.2306 22.6556Z" fill="#2060E7"/>
<path d="M16.6523 0.716637C17.181 0.364201 17.5334 -0.0763433 17.7978 0.0117656C18.1502 0.0998746 18.4145 0.540419 18.6788 0.804746C18.3264 1.06907 18.0621 1.50962 17.7097 1.59773C17.4453 1.68584 17.181 1.15718 16.6523 0.716637Z" fill="#2060E7"/>
<path d="M34.6269 6.8844C35.0674 7.41305 35.508 7.76549 35.508 8.11792C35.4199 8.38225 34.9793 8.8228 34.6269 8.8228C34.4507 8.8228 33.922 8.29414 33.922 8.02981C33.922 7.67738 34.2744 7.41305 34.6269 6.8844Z" fill="#2060E7"/>
<path d="M35.9482 31.0261C35.4195 31.4666 35.0671 31.9072 34.8027 31.9072C34.4503 31.9072 34.0098 31.4666 33.9217 31.1142C33.8335 30.938 34.3622 30.3212 34.6265 30.3212C34.979 30.3212 35.3314 30.6737 35.9482 31.0261Z" fill="#2060E7"/>
<path d="M26.2567 39.5724C25.8162 39.0438 25.3756 38.6913 25.3756 38.427C25.3756 38.1627 25.9043 37.8103 26.1686 37.7221C26.6972 37.5459 27.0497 37.9865 26.9616 38.5151C26.9616 38.7795 26.6091 39.0438 26.2567 39.5724Z" fill="#2060E7"/>
<path d="M43.173 14.197C43.5254 14.7257 43.8778 15.0781 43.8778 15.3424C43.7897 15.6949 43.4373 15.9592 43.173 16.2235C42.9086 15.9592 42.38 15.6949 42.38 15.3424C42.2038 15.0781 42.7324 14.7257 43.173 14.197Z" fill="#2060E7"/>
<path d="M2.02644 22.6556C1.49778 23.0961 1.23345 23.4486 0.969128 23.4486C0.704801 23.3604 0.176147 22.9199 0.176147 22.7437C0.264256 22.3913 0.616692 22.0388 0.969128 21.8626C1.14535 21.7745 1.49778 22.215 2.02644 22.6556Z" fill="#2060E7"/>
<path d="M17.7099 39.5727C17.3575 38.956 17.0051 38.6916 17.0932 38.4273C17.1813 38.0749 17.6218 37.6343 17.8861 37.6343C18.1505 37.6343 18.6791 38.0749 18.6791 38.3392C18.591 38.6916 18.1505 39.0441 17.7099 39.5727Z" fill="#2060E7"/>
<path d="M27.1379 0.98072C26.8736 1.24505 26.5211 1.68559 26.2568 1.59748C25.9044 1.59748 25.64 1.15694 25.2876 0.892611C25.5519 0.628284 25.8163 0.0996308 26.0806 0.0115219C26.3449 -0.0765871 26.7854 0.363958 27.0498 0.540175C27.1379 0.716393 27.1379 0.804502 27.1379 0.98072Z" fill="#2060E7"/>
<path d="M0 14.99C0.264327 14.8138 0.616763 14.5494 0.881089 14.5494C1.23353 14.7257 1.58596 15.0781 1.67407 15.4305C1.76218 15.9592 1.32163 16.2235 0.881089 16.1354C0.528654 16.0473 0.352436 15.6949 0 15.4305C0 15.2543 0 15.1662 0 14.99Z" fill="#2060E7"/>
</svg>
