<?xml version="1.0" encoding="UTF-8"?>
<svg width="22px" height="16px" viewBox="0 0 22 16" version="1.1" xmlns="http://www.w3.org/2000/svg" xmlns:xlink="http://www.w3.org/1999/xlink">
    <title>quark/icon/alert/check_box_outline_blank</title>
    <g id="Exp" stroke="none" stroke-width="1" fill="none" fill-rule="evenodd">
        <g id="GR---Sign-Up" transform="translate(-1241.000000, -229.000000)" fill="#9D9D9D">
            <g id="Group-2" transform="translate(160.000000, 80.000000)">
                <g id="Login" transform="translate(592.000000, 133.000000)">
                    <g id="quark/icon/alert/check_box_outline_blank" transform="translate(488.000000, 12.000000)">
                        <path d="M22.0832,11.3953 C19.8613,6.71484 16.5027,4.35938 12.0004,4.35938 C7.49569,4.35938 4.13944,6.71484 1.91757,11.3977 C1.82845,11.5864 1.78223,11.7925 1.78223,12.0012 C1.78223,12.2099 1.82845,12.416 1.91757,12.6047 C4.13944,17.2852 7.49804,19.6406 12.0004,19.6406 C16.5051,19.6406 19.8613,17.2852 22.0832,12.6023 C22.2637,12.2227 22.2637,11.782 22.0832,11.3953 Z M12.0004,17.9531 C8.21991,17.9531 5.45194,16.0359 3.4996,12 C5.45194,7.96406 8.21991,6.04688 12.0004,6.04688 C15.7808,6.04688 18.5488,7.96406 20.5012,12 C18.5512,16.0359 15.7832,17.9531 12.0004,17.9531 Z M11.9066,7.875 C9.6285,7.875 7.78163,9.72188 7.78163,12 C7.78163,14.2781 9.6285,16.125 11.9066,16.125 C14.1848,16.125 16.0316,14.2781 16.0316,12 C16.0316,9.72188 14.1848,7.875 11.9066,7.875 Z M11.9066,14.625 C10.4558,14.625 9.28163,13.4508 9.28163,12 C9.28163,10.5492 10.4558,9.375 11.9066,9.375 C13.3574,9.375 14.5316,10.5492 14.5316,12 C14.5316,13.4508 13.3574,14.625 11.9066,14.625 Z" id="Shape"></path>
                    </g>
                </g>
            </g>
        </g>
    </g>
</svg>