<svg width="40" height="40" viewBox="0 0 40 40" fill="none" xmlns="http://www.w3.org/2000/svg">
<path d="M20 0C8.96884 0 0 8.96884 0 20C0 31.0312 8.96884 40 20 40C31.0312 40 40 31.0312 40 20C40 8.96884 31.0312 0 20 0ZM20 11.4522C23.4523 11.4522 26.2728 14.2729 26.2728 17.7251C26.2728 21.1773 23.4521 23.9979 20 23.9979C16.5479 23.9979 13.7272 21.1772 13.7272 17.7251C13.7272 14.2728 16.5479 11.4522 20 11.4522V11.4522ZM9.05263 32.1267V31.2008C9.05263 28.5478 11.2007 26.3587 13.8947 26.3587H26.1053C28.7582 26.3587 30.9474 28.5067 30.9474 31.2008V32.1267C28.0428 34.7369 24.2105 36.3373 20 36.3373C15.7895 36.3373 11.9571 34.7369 9.05263 32.1267Z" fill="#041250"/>
</svg>
