<svg width="96" height="19" viewBox="0 0 96 19" fill="none" xmlns="http://www.w3.org/2000/svg">
<path d="M12.909 6.37752C12.909 4.61302 12.2481 2.9646 10.9264 1.82697C9.53625 0.642893 7.46246 0.573242 5.7305 0.573242H0.215576V17.7539H4.34037V12.3675H6.20906C8.10055 12.3675 9.67298 12.1818 11.1315 10.8816C12.3165 9.81365 12.909 7.95628 12.909 6.37752ZM8.78421 6.44717C8.78421 8.18845 7.50803 8.51349 6.09512 8.51349H4.34037V4.42728H5.9356C7.34851 4.42728 8.78421 4.65945 8.78421 6.44717Z" fill="#16256A"/>
<path d="M21.2895 8.30454V4.42728C19.831 4.42728 18.7827 4.91484 18.1218 6.23822H18.0762V4.86841H14.5211V17.7539H18.3041V10.6727C18.3041 8.67601 19.6259 8.35097 21.2895 8.30454Z" fill="#16256A"/>
<path d="M35.68 11.2995C35.68 7.35264 32.7402 4.4505 28.8661 4.4505C24.9919 4.4505 22.0522 7.35264 22.0522 11.2995C22.0522 15.2465 24.9919 18.1486 28.8661 18.1486C32.7402 18.1486 35.68 15.2465 35.68 11.2995ZM31.897 11.2995C31.897 13.0408 30.6208 14.5499 28.8661 14.5499C27.1113 14.5499 25.8351 13.0408 25.8351 11.2995C25.8351 9.55826 27.1113 8.04915 28.8661 8.04915C30.6208 8.04915 31.897 9.55826 31.897 11.2995Z" fill="#16256A"/>
<path d="M50.188 17.7539L45.2883 10.8584L49.5499 4.86841H45.0604L43.0322 8.25811L40.9812 4.86841H36.4462L40.7078 10.8584L35.8993 17.7539H40.4571L43.0322 13.7606L45.5618 17.7539H50.188Z" fill="#16256A"/>
<path d="M57.9563 7.79376V4.86841H56.1332V0.573242H52.3502V4.86841H50.4815V7.79376H52.3502V17.7539H56.1332V7.79376H57.9563Z" fill="#16256A"/>
<path d="M71.8789 11.4621C71.8789 7.58481 69.0759 4.42728 65.2018 4.42728C61.4872 4.42728 58.5702 7.60803 58.5702 11.346C58.5702 15.1072 61.5783 18.1718 65.2701 18.1718C68.1188 18.1718 70.3521 16.2912 71.4459 13.7141H67.5718C66.9565 14.5035 66.2956 14.9214 65.2701 14.9214C63.7889 14.9214 62.5355 14.0159 62.3076 12.4836H71.7878C71.8561 12.1354 71.8789 11.8103 71.8789 11.4621ZM68.096 9.8833H62.3532C62.6494 8.49028 63.8572 7.67768 65.2246 7.67768C66.5919 7.67768 67.7997 8.49028 68.096 9.8833Z" fill="#16256A"/>
<path d="M80.7321 8.30454V4.42728C79.2736 4.42728 78.2253 4.91484 77.5644 6.23822H77.5188V4.86841H73.9638V17.7539H77.7467V10.6727C77.7467 8.67601 79.0685 8.35097 80.7321 8.30454Z" fill="#16256A"/>
<path d="M95.3732 17.7539V4.86841H91.5903V6.23822H91.5447C90.7927 4.96128 89.243 4.42728 87.8529 4.42728C84.0471 4.42728 81.4948 7.53837 81.4948 11.2995C81.4948 15.1304 83.956 18.195 87.8529 18.195C89.2202 18.195 90.861 17.6843 91.5447 16.3609H91.5903V17.7539H95.3732ZM91.5903 11.2995C91.5903 13.1569 90.2685 14.5964 88.4226 14.5964C86.6451 14.5964 85.2777 13.1337 85.2777 11.346C85.2777 9.51183 86.5539 8.02593 88.3998 8.02593C90.2457 8.02593 91.5903 9.41896 91.5903 11.2995Z" fill="#16256A"/>
</svg>
