<svg width="156" height="24" viewBox="0 0 156 24" fill="none" xmlns="http://www.w3.org/2000/svg">
<path d="M0 23.2256H5.07037V15.6037H9.42108C14.197 15.6037 17.272 13.3465 17.272 7.94904C17.272 2.55154 14.1643 0.327121 9.42108 0.327121H0V23.2256ZM5.07037 4.74325H9.25752C10.9258 4.74325 12.0381 5.49563 12.0381 7.94904C12.0381 10.4024 10.9585 11.1875 9.25752 11.1875H5.07037V4.74325Z" fill="#45ED9B"/>
<path d="M19.902 23.2256H24.9724V15.6037H28.2109L31.94 23.2256H37.8282L33.5429 14.9494C36.029 13.9353 37.5011 11.6782 37.5011 7.94904C37.5011 2.55154 34.3934 0.327121 29.6502 0.327121H19.902V23.2256ZM24.9724 4.74325H29.4866C31.1549 4.74325 32.2672 5.49563 32.2672 7.94904C32.2672 10.4024 31.1877 11.1875 29.4866 11.1875H24.9724V4.74325Z" fill="#45ED9B"/>
<path d="M53.6182 15.2438C53.6182 17.8281 52.0153 19.1366 49.5292 19.1366C47.1085 19.1366 45.5056 17.8281 45.5056 15.2438V8.30887C45.5056 5.72462 47.1085 4.41613 49.5946 4.41613C52.0153 4.41613 53.6182 5.72462 53.6182 8.30887V15.2438ZM58.6886 8.30887C58.6886 2.81324 55.0902 0 49.5946 0C44.0335 0 40.4352 2.81324 40.4352 8.30887V15.2438C40.4352 20.7395 44.0335 23.5527 49.5292 23.5527C55.0902 23.5527 58.6886 20.7395 58.6886 15.2438V8.30887Z" fill="#45ED9B"/>
<path d="M74.1591 23.2256H80.2108L72.7197 11.6455L80.2108 0.327121H74.4862L69.8738 7.62192L65.3922 0.327121H59.3405L66.8316 11.9072L59.3405 23.2256H65.0651L69.6448 15.9308L74.1591 23.2256Z" fill="#45ED9B"/>
<path d="M77.2549 4.74328H83.7319V23.2256H88.8022V4.74328H93.4855L96.2115 0.327148H77.2549V4.74328Z" fill="#45ED9B"/>
<path d="M96.3018 23.2256H112.265V18.8095H101.372V13.9681H110.63V9.55196H101.372V4.74328H112.265V0.327148H99.0278L96.3018 4.74328V23.2256Z" fill="#45ED9B"/>
<path d="M115.533 23.2256H120.603V15.6037H123.842L127.571 23.2256H133.459L129.174 14.9495C131.66 13.9354 133.132 11.6782 133.132 7.94907C133.132 2.55157 130.024 0.327148 125.281 0.327148H115.533V23.2256ZM120.603 4.74328H125.118C126.786 4.74328 127.898 5.49566 127.898 7.94907C127.898 10.4025 126.819 11.1876 125.118 11.1876H120.603V4.74328Z" fill="#45ED9B"/>
<path d="M148.137 0.327148H141.922L134.431 23.2256H139.435L140.908 18.3842H148.66L150.132 23.2256H155.628L148.137 0.327148ZM144.768 5.72464L147.286 13.9681H142.249L144.768 5.72464Z" fill="#45ED9B"/>
</svg>
