<svg width="28" height="28" viewBox="0 0 28 28" fill="none" xmlns="http://www.w3.org/2000/svg">
<path fill-rule="evenodd" clip-rule="evenodd" d="M14 0.666656C6.63999 0.666656 0.666656 6.63999 0.666656 14C0.666656 21.36 6.63999 27.3333 14 27.3333C21.36 27.3333 27.3333 21.36 27.3333 14C27.3333 6.63999 21.36 0.666656 14 0.666656ZM14 4.66666C16.2133 4.66666 18 6.45332 18 8.66666C18 10.88 16.2133 12.6667 14 12.6667C11.7867 12.6667 9.99999 10.88 9.99999 8.66666C9.99999 6.45332 11.7867 4.66666 14 4.66666ZM5.99999 19.3067C7.71999 21.8933 10.6667 23.6 14 23.6C17.3333 23.6 20.28 21.8933 22 19.3067C21.96 16.6533 16.6533 15.2 14 15.2C11.3333 15.2 6.03999 16.6533 5.99999 19.3067Z" fill="white"/>
</svg>
