<svg width="32" height="32" viewBox="0 0 32 32" fill="none" xmlns="http://www.w3.org/2000/svg">
<path fill-rule="evenodd" clip-rule="evenodd" d="M12.56 0.666016C13.2666 0.666016 13.9466 0.946016 14.4533 1.45268L20.88 7.89268C21.3866 8.38602 21.6666 9.06602 21.6666 9.77268V24.666C21.6666 26.1327 20.4666 27.3327 19 27.3327H2.98665C1.51998 27.3327 0.333313 26.1327 0.333313 24.666V3.33268C0.333313 1.86602 1.53331 0.666016 2.99998 0.666016H12.56ZM6.99998 21.9993H15C15.7333 21.9993 16.3333 21.3993 16.3333 20.666C16.3333 19.9327 15.7333 19.3327 15 19.3327H6.99998C6.26665 19.3327 5.66665 19.9327 5.66665 20.666C5.66665 21.3993 6.26665 21.9993 6.99998 21.9993ZM15 16.666H6.99998C6.26665 16.666 5.66665 16.066 5.66665 15.3327C5.66665 14.5993 6.26665 13.9993 6.99998 13.9993H15C15.7333 13.9993 16.3333 14.5993 16.3333 15.3327C16.3333 16.066 15.7333 16.666 15 16.666ZM12.3333 2.66602V8.66602C12.3333 9.39935 12.9333 9.99935 13.6666 9.99935H19.6666L12.3333 2.66602Z" fill="#1A2791"/>
</svg>
