<svg width="48" height="48" viewBox="0 0 48 48" fill="none" xmlns="http://www.w3.org/2000/svg">
<path fill-rule="evenodd" clip-rule="evenodd" d="M17.375 10.05C18.6 11.25 20.55 11.25 21.775 10.05L24 7.84998L26.225 10.05C27.45 11.25 29.4 11.25 30.625 10.05C31.85 8.82498 31.85 6.84998 30.625 5.62498L25.75 0.749982C25.283 0.281851 24.6488 0.0187683 23.9875 0.0187683C23.3263 0.0187683 22.6921 0.281851 22.225 0.749982L17.375 5.62498C16.15 6.84998 16.15 8.84998 17.375 10.05ZM37.9501 17.375C36.75 18.6 36.75 20.55 37.9501 21.775L40.15 24L37.9501 26.225C36.75 27.45 36.75 29.4 37.9501 30.625C39.175 31.85 41.15 31.85 42.375 30.625L47.25 25.75C48.225 24.775 48.225 23.2 47.25 22.225L42.375 17.35C41.15 16.15 39.15 16.15 37.9501 17.375ZM5.62505 17.375L0.750049 22.25C-0.224951 23.225 -0.224951 24.8 0.750049 25.775L5.62505 30.65C6.85005 31.875 8.82505 31.875 10.05 30.65C11.25 29.425 11.25 27.475 10.05 26.25L7.85005 24L10.05 21.775C11.25 20.55 11.25 18.6 10.05 17.375C8.85005 16.15 6.85005 16.15 5.62505 17.375ZM21.775 37.95L24 40.15L26.25 37.95C27.475 36.75 29.425 36.75 30.65 37.95C31.875 39.175 31.875 41.15 30.65 42.375L25.775 47.25C24.8 48.225 23.225 48.225 22.25 47.25L17.375 42.375C16.15 41.15 16.15 39.175 17.375 37.95C18.6 36.75 20.55 36.75 21.775 37.95ZM16.5 24C16.5 19.8578 19.8579 16.5 24 16.5C28.1422 16.5 31.5 19.8578 31.5 24C31.5 28.1421 28.1422 31.5 24 31.5C19.8579 31.5 16.5 28.1421 16.5 24Z" fill="#1A2791"/>
</svg>
