<svg width="12" height="12" viewBox="0 0 12 12" fill="none" xmlns="http://www.w3.org/2000/svg">
<path d="M11.2501 1.19885C11.0944 1.0428 10.883 0.955111 10.6626 0.955111C10.4422 0.955111 10.2308 1.0428 10.0751 1.19885L6.0001 5.26552L1.9251 1.19052C1.7694 1.03447 1.55803 0.946777 1.3376 0.946777C1.11717 0.946777 0.905791 1.03447 0.750098 1.19052C0.425098 1.51552 0.425098 2.04052 0.750098 2.36552L4.8251 6.44052L0.750098 10.5155C0.425098 10.8405 0.425098 11.3655 0.750098 11.6905C1.0751 12.0155 1.6001 12.0155 1.9251 11.6905L6.0001 7.61552L10.0751 11.6905C10.4001 12.0155 10.9251 12.0155 11.2501 11.6905C11.5751 11.3655 11.5751 10.8405 11.2501 10.5155L7.1751 6.44052L11.2501 2.36552C11.5668 2.04885 11.5668 1.51552 11.2501 1.19885Z" fill="#FFFFFF"/>
</svg>