<svg width="32" height="32" viewBox="0 0 32 32" fill="none" xmlns="http://www.w3.org/2000/svg">
<path fill-rule="evenodd" clip-rule="evenodd" d="M14 0.666016C6.64002 0.666016 0.666687 6.63935 0.666687 13.9993C0.666687 21.3594 6.64002 27.3327 14 27.3327C21.36 27.3327 27.3334 21.3594 27.3334 13.9993C27.3334 6.63935 21.36 0.666016 14 0.666016ZM14 20.666C13.2667 20.666 12.6667 20.066 12.6667 19.3327V13.9993C12.6667 13.266 13.2667 12.666 14 12.666C14.7334 12.666 15.3334 13.266 15.3334 13.9993V19.3327C15.3334 20.066 14.7334 20.666 14 20.666ZM12.6667 9.99935H15.3334V7.33268H12.6667V9.99935Z" fill="#1A2791"/>
</svg>
