<svg width="32" height="32" viewBox="0 0 32 32" fill="none" xmlns="http://www.w3.org/2000/svg">
<path d="M27.3137 4.68625C24.2917 1.66425 20.2738 0 16 0C11.7262 0 7.70825 1.66425 4.68625 4.68625C1.66425 7.70825 0 11.7262 0 16C0 20.2738 1.66431 24.2917 4.68625 27.3137C7.70819 30.3358 11.7262 32 16 32C20.2738 32 24.2917 30.3357 27.3137 27.3137C30.3357 24.2917 32 20.2738 32 16C32 11.7262 30.3357 7.70831 27.3137 4.68625ZM16 15C18.4813 15 20.5 17.0187 20.5 19.5C20.5 21.5548 19.1152 23.2912 17.2301 23.8277C17.0947 23.8663 17 23.9881 17 24.1289V24.9718C17 25.5103 16.5862 25.9736 16.0483 25.9989C15.474 26.0259 15 25.5683 15 25V24.1287C15 23.9882 14.9059 23.8664 14.7708 23.8279C12.8938 23.2942 11.5126 21.5709 11.5001 19.5279C11.4968 18.9826 11.9255 18.5161 12.4706 18.5004C13.0363 18.4842 13.5 18.9379 13.5 19.5C13.5 20.9376 14.7198 22.0957 16.1787 21.9937C17.4102 21.9077 18.4077 20.9101 18.4937 19.6786C18.5956 18.2196 17.4376 17 16 17C13.5187 17 11.5 14.9813 11.5 12.5C11.5 10.4452 12.8848 8.70881 14.7699 8.17231C14.9053 8.13375 15 8.01194 15 7.87113V7.02825C15 6.48975 15.4138 6.02644 15.9517 6.00112C16.526 5.97412 17 6.43169 17 7V7.87131C17 8.01175 17.0941 8.13363 17.2292 8.17206C19.1062 8.70581 20.4874 10.4291 20.4999 12.4721C20.5033 13.0174 20.0745 13.4839 19.5294 13.4996C18.9637 13.5158 18.5 13.0621 18.5 12.5C18.5 11.0624 17.2802 9.90425 15.8213 10.0063C14.5898 10.0923 13.5923 11.0899 13.5063 12.3214C13.4044 13.7804 14.5624 15 16 15Z" fill="#1A2791"/>
</svg>
