<svg width="28" height="18" viewBox="0 0 28 18" fill="none" xmlns="http://www.w3.org/2000/svg">
<path fill-rule="evenodd" clip-rule="evenodd" d="M2 3C1.175 3 0.5 2.325 0.5 1.5C0.5 0.675 1.175 0 2 0H26C26.825 0 27.5 0.675 27.5 1.5C27.5 2.325 26.825 3 26 3H2ZM2 10.5H26C26.825 10.5 27.5 9.825 27.5 9C27.5 8.175 26.825 7.5 26 7.5H2C1.175 7.5 0.5 8.175 0.5 9C0.5 9.825 1.175 10.5 2 10.5ZM2 18H26C26.825 18 27.5 17.325 27.5 16.5C27.5 15.675 26.825 15 26 15H2C1.175 15 0.5 15.675 0.5 16.5C0.5 17.325 1.175 18 2 18Z" fill="white"/>
</svg>
