<svg width="32" height="32" viewBox="0 0 32 32" fill="none" xmlns="http://www.w3.org/2000/svg">
<path d="M16 32C24.8099 32 32 24.8094 32 16C32 7.19 24.8094 0 16 0C7.19006 0 0 7.19056 0 16C0 24.81 7.19056 32 16 32ZM20.7467 29.3036C21.6532 28.1451 22.3481 26.7634 22.8701 25.3744H26.5554C24.9938 27.1312 23.0021 28.4964 20.7467 29.3036ZM27.9639 23.5H23.4762C24.0294 21.4883 24.354 19.2577 24.423 16.9375H30.0931C29.9351 19.3368 29.1756 21.5741 27.9639 23.5ZM27.9639 8.5C29.1756 10.4259 29.9351 12.6632 30.0931 15.0625H24.423C24.354 12.7423 24.0294 10.5118 23.4762 8.5H27.9639ZM26.5554 6.625H22.87C22.3483 5.23719 21.6534 3.85525 20.7466 2.69644C23.0021 3.50363 24.9938 4.86875 26.5554 6.625ZM16.9375 2.03538C18.7773 2.65894 20.0971 4.84694 20.8519 6.625H16.9375V2.03538ZM16.9375 8.5H21.5267C22.1228 10.4736 22.4735 12.7127 22.5473 15.0625H16.9375V8.5ZM16.9375 16.9369H22.5473C22.4735 19.2873 22.1228 21.5264 21.5267 23.5H16.9375V16.9369ZM16.9375 25.3744H20.8519C20.0958 27.1561 18.7757 29.3416 16.9375 29.9646V25.3744ZM5.44462 25.375H9.13C9.65175 26.7628 10.3466 28.1447 11.2534 29.3036C8.99794 28.4964 7.00619 27.1313 5.44462 25.375ZM15.0625 29.9646C13.2243 29.3416 11.9043 27.1563 11.1481 25.375H15.0625V29.9646ZM15.0625 23.5H10.4733C9.87719 21.5264 9.5265 19.2873 9.45269 16.9375H15.0625V23.5ZM15.0625 15.0625H9.45269C9.5265 12.7127 9.87719 10.4736 10.4733 8.5H15.0625V15.0625ZM15.0625 2.03538V6.625H11.1481C11.9043 4.84387 13.2242 2.65844 15.0625 2.03538ZM11.2533 2.69644C10.3467 3.85488 9.65194 5.23656 9.12994 6.625H5.44462C7.00619 4.86875 8.99794 3.50356 11.2533 2.69644ZM4.03606 8.49938H8.52381C7.97056 10.5118 7.646 12.7423 7.577 15.0625H1.90688C2.06488 12.6632 2.82438 10.4259 4.03606 8.49938ZM1.90688 16.9375H7.577C7.646 19.2577 7.97056 21.4883 8.52381 23.5H4.03606C2.82438 21.5741 2.06488 19.3368 1.90688 16.9375Z" fill="#1A2791"/>
</svg>
