<svg width="80" height="80" viewBox="0 0 80 80" fill="none" xmlns="http://www.w3.org/2000/svg">
<path d="M40 80C62.0914 80 80 62.0914 80 40C80 17.9086 62.0914 0 40 0C17.9086 0 0 17.9086 0 40C0 62.0914 17.9086 80 40 80Z" fill="#EAB14D"/>
<path d="M40 0C39.2859 0 38.5764 0.0195312 37.8716 0.0564063C58.9734 1.16297 75.7433 18.6227 75.7433 40C75.7433 61.3773 58.9734 78.837 37.8716 79.9436C38.5764 79.9805 39.2859 80 40 80C62.0914 80 80 62.0914 80 40C80 17.9086 62.0914 0 40 0Z" fill="#E49542"/>
<path d="M40 71.1697C57.2146 71.1697 71.1698 57.2145 71.1698 39.9999C71.1698 22.7853 57.2146 8.83008 40 8.83008C22.7854 8.83008 8.83015 22.7853 8.83015 39.9999C8.83015 57.2145 22.7854 71.1697 40 71.1697Z" fill="#F4FBFF"/>
<path d="M40 8.83008C39.1367 8.83008 38.2822 8.8668 37.4367 8.93555C53.4522 10.2393 66.0434 23.6485 66.0434 39.9999C66.0434 56.3513 53.4522 69.7604 37.4367 71.0643C38.2822 71.1332 39.1367 71.1699 40 71.1699C57.2147 71.1699 71.1698 57.2146 71.1698 40.0001C71.1698 22.7855 57.2147 8.83008 40 8.83008Z" fill="#DAF1F4"/>
<path d="M40 18.4236C39.3333 18.4236 38.7928 17.8831 38.7928 17.2164V15.4445C38.7928 14.7778 39.3333 14.2373 40 14.2373C40.6667 14.2373 41.2074 14.7778 41.2074 15.4445V17.2164C41.2074 17.8831 40.6667 18.4236 40 18.4236Z" fill="#2B4D66"/>
<path d="M56.0449 25.1234C55.7358 25.1234 55.4269 25.0055 55.1911 24.7698C54.7197 24.2983 54.7197 23.534 55.1913 23.0625L56.4442 21.8097C56.9156 21.3381 57.68 21.3383 58.1516 21.8097C58.623 22.2812 58.623 23.0454 58.1514 23.517L56.8984 24.77C56.6627 25.0054 56.3538 25.1234 56.0449 25.1234Z" fill="#2B4D66"/>
<path d="M64.4242 41.2073H62.6523C61.9855 41.2073 61.4451 40.6669 61.4451 40.0002C61.4451 39.3334 61.9856 38.793 62.6523 38.793H64.4242C65.0911 38.793 65.6314 39.3334 65.6314 40.0002C65.6314 40.6669 65.0909 41.2073 64.4242 41.2073Z" fill="#2B4D66"/>
<path d="M57.2047 58.5052C56.8958 58.5052 56.5867 58.3873 56.3509 58.1516L55.0981 56.8988C54.6267 56.4273 54.6267 55.663 55.0981 55.1913C55.5697 54.7201 56.3339 54.7201 56.8056 55.1913L58.0584 56.4441C58.5298 56.9157 58.5298 57.6799 58.0584 58.1516C57.8226 58.3873 57.5136 58.5052 57.2047 58.5052Z" fill="#2B4D66"/>
<path d="M39.8684 65.6321C39.2017 65.6321 38.6613 65.0916 38.6613 64.4249V62.653C38.6613 61.9861 39.2017 61.4458 39.8684 61.4458C40.5352 61.4458 41.0756 61.9863 41.0756 62.653V64.4249C41.0756 65.0916 40.5352 65.6321 39.8684 65.6321Z" fill="#2B4D66"/>
<path d="M22.5706 58.4125C22.2617 58.4125 21.9527 58.2945 21.717 58.0587C21.2455 57.5873 21.2456 56.823 21.717 56.3514L22.97 55.0986C23.4416 54.6273 24.2058 54.6272 24.6774 55.0988C25.1488 55.5702 25.1488 56.3345 24.6772 56.8061L23.4242 58.0589C23.1886 58.2947 22.8795 58.4125 22.5706 58.4125Z" fill="#2B4D66"/>
<path d="M17.2161 41.076H15.4442C14.7775 41.076 14.237 40.5355 14.237 39.8688C14.237 39.2021 14.7775 38.6616 15.4442 38.6616H17.2161C17.8828 38.6616 18.4233 39.2021 18.4233 39.8688C18.4234 40.5355 17.8828 41.076 17.2161 41.076Z" fill="#2B4D66"/>
<path d="M23.9167 25.0312C23.6078 25.0312 23.2989 24.9133 23.0631 24.6776L21.8102 23.4247C21.3388 22.9532 21.3386 22.189 21.81 21.7174C22.2816 21.246 23.0458 21.2458 23.5173 21.7172L24.7703 22.9702C25.2417 23.4416 25.2419 24.206 24.7705 24.6776C24.5345 24.9132 24.2256 25.0312 23.9167 25.0312Z" fill="#2B4D66"/>
<path d="M40 41.2072H29.7469C29.0802 41.2072 28.5397 40.6666 28.5397 39.9998C28.5397 39.3331 29.0802 38.7927 29.7469 38.7927H38.7927V23.4337C38.7927 22.767 39.3331 22.2266 39.9998 22.2266C40.6666 22.2266 41.207 22.767 41.207 23.4337V39.9998C41.2072 40.6666 40.6667 41.2072 40 41.2072Z" fill="#2B4D66"/>
<path d="M52.3853 47.5764C52.1994 47.5764 52.0109 47.5333 51.8342 47.4425L39.448 41.0731C38.855 40.7683 38.6216 40.0404 38.9264 39.4475C39.2313 38.8545 39.9591 38.6209 40.5522 38.9259L52.9384 45.2951C53.5314 45.6001 53.765 46.3279 53.46 46.9208C53.2458 47.3372 52.8233 47.5764 52.3853 47.5764Z" fill="#DA4A54"/>
<path d="M40 43.2222C41.7796 43.2222 43.2222 41.7796 43.2222 40C43.2222 38.2205 41.7796 36.7778 40 36.7778C38.2204 36.7778 36.7778 38.2205 36.7778 40C36.7778 41.7796 38.2204 43.2222 40 43.2222Z" fill="#365E7D"/>
</svg>
