<svg width="32" height="32" viewBox="0 0 32 32" fill="none" xmlns="http://www.w3.org/2000/svg">
<path fill-rule="evenodd" clip-rule="evenodd" d="M1.58667 4.83565L10.92 0.688984C11.6 0.382318 12.4 0.382318 13.08 0.688984L22.4133 4.83565C23.3733 5.26232 24 6.22232 24 7.27565V13.5423C24 20.9423 18.88 27.8623 12 29.5423C5.12 27.8623 0 20.9423 0 13.5423V7.27565C0 6.22232 0.626667 5.26232 1.58667 4.83565ZM4.93333 17.1423L8.38667 20.5957C8.90667 21.1157 9.76 21.1157 10.2667 20.5957L19.0533 11.809C19.5733 11.289 19.5733 10.449 19.0533 9.92899C18.5333 9.40899 17.6933 9.40899 17.1733 9.92899L9.33333 17.769L6.81333 15.2623C6.29333 14.7423 5.45333 14.7423 4.93333 15.2623C4.68366 15.5114 4.54335 15.8496 4.54335 16.2023C4.54335 16.555 4.68366 16.8932 4.93333 17.1423Z" fill="#1A2791"/>
</svg>
