<svg width="50" height="50" viewBox="0 0 50 50" fill="none" xmlns="http://www.w3.org/2000/svg">
<path fill-rule="evenodd" clip-rule="evenodd" d="M0 25C0 11.2 11.175 0 24.975 0C38.8 0 50 11.2 50 25C50 38.8 38.8 50 24.975 50C11.175 50 0 38.8 0 25ZM34.925 15H42.3C39.9 10.875 36.075 7.675 31.475 6.1C32.975 8.875 34.125 11.875 34.925 15ZM25 5.1C27.075 8.1 28.7 11.425 29.775 15H20.225C21.3 11.425 22.925 8.1 25 5.1ZM5 25C5 26.725 5.25 28.4 5.65 30H14.1C13.9 28.35 13.75 26.7 13.75 25C13.75 23.3 13.9 21.65 14.1 20H5.65C5.25 21.6 5 23.275 5 25ZM7.7 35H15.075C15.875 38.125 17.025 41.125 18.525 43.9C13.925 42.325 10.1 39.15 7.7 35ZM7.7 15H15.075C15.875 11.875 17.025 8.875 18.525 6.1C13.925 7.675 10.1 10.85 7.7 15ZM25 44.9C22.925 41.9 21.3 38.575 20.225 35H29.775C28.7 38.575 27.075 41.9 25 44.9ZM18.75 25C18.75 26.7 18.925 28.35 19.15 30H30.85C31.075 28.35 31.25 26.7 31.25 25C31.25 23.3 31.075 21.625 30.85 20H19.15C18.925 21.625 18.75 23.3 18.75 25ZM31.475 43.9C32.975 41.125 34.125 38.125 34.925 35H42.3C39.9 39.125 36.075 42.325 31.475 43.9ZM36.25 25C36.25 26.7 36.1 28.35 35.9 30H44.35C44.75 28.4 45 26.725 45 25C45 23.275 44.75 21.6 44.35 20H35.9C36.1 21.65 36.25 23.3 36.25 25Z" fill="#1A2791"/>
</svg>
