<svg width="32" height="32" viewBox="0 0 32 32" fill="none" xmlns="http://www.w3.org/2000/svg">
<path fill-rule="evenodd" clip-rule="evenodd" d="M12.4666 8.56092C13.12 9.20092 14.16 9.20092 14.8133 8.56092L16 7.38759L17.1866 8.56092C17.84 9.20092 18.88 9.20092 19.5333 8.56092C20.1866 7.90759 20.1866 6.85425 19.5333 6.20092L16.9333 3.60092C16.6842 3.35125 16.346 3.21094 15.9933 3.21094C15.6406 3.21094 15.3024 3.35125 15.0533 3.60092L12.4666 6.20092C11.8133 6.85425 11.8133 7.92092 12.4666 8.56092ZM23.44 12.4676C22.8 13.1209 22.8 14.1609 23.44 14.8143L24.6133 16.0009L23.44 17.1876C22.8 17.8409 22.8 18.8809 23.44 19.5343C24.0933 20.1876 25.1466 20.1876 25.8 19.5343L28.4 16.9343C28.92 16.4143 28.92 15.5743 28.4 15.0543L25.8 12.4543C25.1466 11.8143 24.08 11.8143 23.44 12.4676ZM6.19996 12.4676L3.59996 15.0676C3.07996 15.5876 3.07996 16.4276 3.59996 16.9476L6.19996 19.5476C6.85329 20.2009 7.90663 20.2009 8.55996 19.5476C9.19996 18.8943 9.19996 17.8543 8.55996 17.2009L7.38663 16.0009L8.55996 14.8143C9.19996 14.1609 9.19996 13.1209 8.55996 12.4676C7.91996 11.8143 6.85329 11.8143 6.19996 12.4676ZM14.8133 23.4409L16 24.6143L17.2 23.4409C17.8533 22.8009 18.8933 22.8009 19.5466 23.4409C20.2 24.0943 20.2 25.1476 19.5466 25.8009L16.9466 28.4009C16.4266 28.9209 15.5866 28.9209 15.0666 28.4009L12.4666 25.8009C11.8133 25.1476 11.8133 24.0943 12.4666 23.4409C13.12 22.8009 14.16 22.8009 14.8133 23.4409ZM12 16.0009C12 13.7918 13.7908 12.0009 16 12.0009C18.2091 12.0009 20 13.7918 20 16.0009C20 18.2101 18.2091 20.0009 16 20.0009C13.7908 20.0009 12 18.2101 12 16.0009Z" fill="#1A2791"/>
</svg>
