<svg width="26" height="28" viewBox="0 0 26 28" fill="none" xmlns="http://www.w3.org/2000/svg">
<path fill-rule="evenodd" clip-rule="evenodd" d="M23.003 13.9993C23.003 14.4527 22.963 14.8793 22.9096 15.306L25.723 17.506C25.9763 17.706 26.043 18.066 25.883 18.3594L23.2163 22.9727C23.0563 23.266 22.7096 23.386 22.403 23.266L19.083 21.9327C18.3896 22.4527 17.643 22.906 16.8296 23.2393L16.323 26.7727C16.283 27.0927 16.003 27.3327 15.6696 27.3327H10.3363C10.003 27.3327 9.72296 27.0927 9.68296 26.7727L9.17629 23.2393C8.36296 22.906 7.61629 22.466 6.92296 21.9327L3.60296 23.266C3.30963 23.3727 2.94963 23.266 2.78963 22.9727L0.12296 18.3594C-0.0370403 18.066 0.0296264 17.706 0.28296 17.506L3.09629 15.306C3.04296 14.8793 3.00296 14.4393 3.00296 13.9993C3.00296 13.5593 3.04296 13.1193 3.09629 12.6927L0.28296 10.4927C0.0296264 10.2927 -0.0503736 9.93268 0.12296 9.63935L2.78963 5.02602C2.94963 4.73268 3.29629 4.61268 3.60296 4.73268L6.92296 6.06602C7.61629 5.54602 8.36296 5.09268 9.17629 4.75935L9.68296 1.22602C9.72296 0.906016 10.003 0.666016 10.3363 0.666016H15.6696C16.003 0.666016 16.283 0.906016 16.323 1.22602L16.8296 4.75935C17.643 5.09268 18.3896 5.53268 19.083 6.06602L22.403 4.73268C22.6963 4.62602 23.0563 4.73268 23.2163 5.02602L25.883 9.63935C26.043 9.93268 25.9763 10.2927 25.723 10.4927L22.9096 12.6927C22.963 13.1193 23.003 13.546 23.003 13.9993ZM8.33629 13.9993C8.33629 16.5727 10.4296 18.666 13.003 18.666C15.5763 18.666 17.6696 16.5727 17.6696 13.9993C17.6696 11.426 15.5763 9.33268 13.003 9.33268C10.4296 9.33268 8.33629 11.426 8.33629 13.9993Z" fill="#FDD100"/>
</svg>
