<svg width="20" height="20" viewBox="0 0 20 20" fill="none" xmlns="http://www.w3.org/2000/svg">
<circle cx="10" cy="10" r="10" fill="#1A2791"/>
<path d="M13.75 10.625H10.625V13.75C10.625 14.0938 10.3438 14.375 10 14.375C9.65625 14.375 9.375 14.0938 9.375 13.75V10.625H6.25C5.90625 10.625 5.625 10.3438 5.625 10C5.625 9.65625 5.90625 9.375 6.25 9.375H9.375V6.25C9.375 5.90625 9.65625 5.625 10 5.625C10.3438 5.625 10.625 5.90625 10.625 6.25V9.375H13.75C14.0938 9.375 14.375 9.65625 14.375 10C14.375 10.3438 14.0938 10.625 13.75 10.625Z" fill="white"/>
</svg>
