<svg width="46" height="56" viewBox="0 0 46 56" fill="none" xmlns="http://www.w3.org/2000/svg">
<path fill-rule="evenodd" clip-rule="evenodd" d="M3.475 8.94063L20.975 1.16563C22.25 0.590625 23.75 0.590625 25.025 1.16563L42.525 8.94063C44.325 9.74063 45.5 11.5406 45.5 13.5156V25.2656C45.5 39.1406 35.9 52.1156 23 55.2656C10.1 52.1156 0.5 39.1406 0.5 25.2656V13.5156C0.5 11.5406 1.675 9.74063 3.475 8.94063ZM9.75 32.0156L16.225 38.4906C17.2 39.4656 18.8 39.4656 19.75 38.4906L36.225 22.0156C37.2 21.0406 37.2 19.4656 36.225 18.4906C35.25 17.5156 33.675 17.5156 32.7 18.4906L18 33.1906L13.275 28.4906C12.3 27.5156 10.725 27.5156 9.75 28.4906C9.28187 28.9577 9.01879 29.5918 9.01879 30.2531C9.01879 30.9144 9.28187 31.5485 9.75 32.0156Z" fill="#1A2791"/>
</svg>
