<svg width="36" height="36" viewBox="0 0 36 36" fill="none" xmlns="http://www.w3.org/2000/svg">
<rect width="36" height="36" rx="8" fill="#D12C7F"/>
<path fill-rule="evenodd" clip-rule="evenodd" d="M25.53 26.5037C27.07 26.5037 28.03 24.8337 27.26 23.5037L19.73 10.4937C18.96 9.16372 17.04 9.16372 16.27 10.4937L8.74 23.5037C7.97 24.8337 8.93 26.5037 10.47 26.5037H25.53ZM18 19.5037C17.45 19.5037 17 19.0537 17 18.5037V16.5037C17 15.9537 17.45 15.5037 18 15.5037C18.55 15.5037 19 15.9537 19 16.5037V18.5037C19 19.0537 18.55 19.5037 18 19.5037ZM17 21.5037V23.5037H19V21.5037H17Z" fill="white"/>
</svg>
