<?xml version="1.0" encoding="UTF-8"?>
<svg width="22px" height="19px" viewBox="0 0 22 19" version="1.1" xmlns="http://www.w3.org/2000/svg" xmlns:xlink="http://www.w3.org/1999/xlink">
    <title>quark/icon/alert/check_box_outline_blank</title>
    <g id="Exp" stroke="none" stroke-width="1" fill="none" fill-rule="evenodd">
        <g id="GR---Sign-Up" transform="translate(-1241.000000, -290.000000)" fill="#9D9D9D">
            <g id="Group-2" transform="translate(160.000000, 80.000000)">
                <g id="Login" transform="translate(592.000000, 133.000000)">
                    <g id="quark/icon/alert/check_box_outline_blank" transform="translate(488.000000, 74.000000)">
                        <path d="M19.4615,3.82544 C19.4861,3.82544 19.5105,3.8303 19.5333,3.83973 C19.556,3.84917 19.5767,3.863 19.5941,3.88043 L19.5941,3.88043 L20.5933,4.88074 C20.6107,4.89816 20.6245,4.91884 20.634,4.9416 C20.6434,4.96436 20.6483,4.98876 20.6483,5.0134 C20.6483,5.03804 20.6434,5.06244 20.634,5.0852 C20.6245,5.10796 20.6107,5.12864 20.5933,5.14606 L20.5933,5.14606 L3.90225,21.8364 C3.86709,21.8715 3.81942,21.8912 3.76972,21.8912 C3.72001,21.8912 3.67234,21.8715 3.63718,21.8364 L3.63718,21.8364 L2.63663,20.8358 C2.60149,20.8007 2.58176,20.753 2.58176,20.7033 C2.58176,20.6536 2.60149,20.6059 2.63663,20.5707 L2.63663,20.5707 L5.11679,18.0913 C3.86975,16.9661 2.80335,15.4707 1.91757,13.6051 C1.82845,13.4164 1.78223,13.2103 1.78223,13.0016 C1.78223,12.7929 1.82845,12.5868 1.91757,12.3981 C4.13475,7.7059 7.49569,5.35981 12.0004,5.35981 C13.7638,5.35981 15.3522,5.72074 16.7655,6.44262 L16.7655,6.44262 L19.3288,3.88043 C19.3462,3.863 19.3669,3.84917 19.3897,3.83973 C19.4124,3.8303 19.4368,3.82544 19.4615,3.82544 Z M19.1418,8.14887 C20.2788,9.24434 21.2593,10.65996 22.0832,12.3957 C22.1723,12.5845 22.2186,12.7906 22.2186,12.9993 C22.2186,13.208 22.1723,13.4141 22.0832,13.6028 C19.866,18.295 16.5051,20.6411 12.0004,20.6411 C10.3754,20.6411 8.89882,20.3344 7.57069,19.7211 L7.57069,19.7211 L8.8628,18.429 C9.81905,18.7787 10.8649,18.9536 12.0004,18.9536 C15.7832,18.9536 18.5512,17.0364 20.5012,13.0004 C19.7687,11.4864 18.9217,10.27067 17.9493,9.34137 L17.9493,9.34137 Z M15.7579,11.522 C16.043,12.2666 16.1064,13.0778 15.9403,13.8576 C15.7742,14.6375 15.3858,15.3525 14.822,15.9163 C14.2583,16.4801 13.5432,16.8685 12.7634,17.0346 C11.9836,17.2006 11.1723,17.1373 10.4277,16.8521 L10.4277,16.8521 L11.6657,15.6142 C11.7449,15.6214 11.8248,15.6252 11.9059,15.6252 C12.2507,15.6253 12.5921,15.5576 12.9107,15.4257 C13.2293,15.2939 13.5187,15.1005 13.7625,14.8567 C14.0063,14.6129 14.1996,14.3235 14.3315,14.0049 C14.4633,13.6864 14.5311,13.3449 14.5309,13.0002 C14.5309,12.9191 14.5272,12.8392 14.5199,12.7599 L14.5199,12.7599 Z M12.0004,7.04731 C8.21991,7.04731 5.45194,8.96449 3.4996,13.0004 C4.29647,14.6476 5.22929,15.9416 6.31139,16.8967 L6.31139,16.8967 L8.26655,14.9415 C7.85022,14.1612 7.6957,13.2678 7.8258,12.3929 C7.9559,11.5181 8.36372,10.7083 8.98911,10.08291 C9.6145,9.45752 10.4243,9.0497 11.2991,8.9196 C12.174,8.7895 13.0674,8.94402 13.8477,9.36035 L13.8477,9.36035 L15.4954,7.7127 C14.4409,7.26668 13.2787,7.04731 12.0004,7.04731 Z M12.7082,10.49988 C12.3145,10.37421 11.8967,10.34319 11.4887,10.40933 C11.0807,10.47547 10.6941,10.63691 10.3603,10.88053 C10.0265,11.1242 9.75478,11.4431 9.56736,11.8114 C9.37993,12.1798 9.28204,12.5871 9.2816284,13.0004 C9.28133,13.2725 9.32332,13.5429 9.40608,13.802 L9.40608,13.802 Z" id="Combined-Shape"></path>
                    </g>
                </g>
            </g>
        </g>
    </g>
</svg>