<svg width="18" height="18" viewBox="0 0 18 18" fill="none" xmlns="http://www.w3.org/2000/svg">
<path d="M14.5998 8.19995H3.3998C2.51615 8.19995 1.7998 8.9163 1.7998 9.79995V15.4C1.7998 16.2836 2.51615 17 3.3998 17H14.5998C15.4835 17 16.1998 16.2836 16.1998 15.4V9.79995C16.1998 8.9163 15.4835 8.19995 14.5998 8.19995Z" stroke="#959BB2" stroke-width="2" stroke-linecap="round" stroke-linejoin="round"/>
<path d="M5 8.2V5C5 3.93913 5.42143 2.92172 6.17157 2.17157C6.92172 1.42143 7.93913 1 9 1C10.0609 1 11.0783 1.42143 11.8284 2.17157C12.5786 2.92172 13 3.93913 13 5V8.2" stroke="#959BB2" stroke-width="2" stroke-linecap="round" stroke-linejoin="round"/>
</svg>
